<svg width="261" height="261" viewBox="0 0 261 261" fill="none" xmlns="http://www.w3.org/2000/svg">
<path d="M110.232 261C98.2018 261 88.2221 252.055 86.5954 240.466C79.4388 238.28 72.7665 235.494 66.7049 232.159C60.1554 228.556 54.3074 224.289 49.2836 219.453H17.7551C14.1195 219.453 11.1715 216.505 11.1715 212.869V110.542C11.1715 106.906 14.1195 103.958 17.7551 103.958H32.6454L17.3901 64.5618C16.7351 62.8704 16.8075 60.9832 17.5889 59.3464C17.9152 58.6638 20.4814 53.5723 25.6652 50.8175C26.2045 49.7246 26.8646 48.706 27.6283 47.7859C27.3295 44.004 27.8582 40.5727 29.2106 37.5493C30.64 34.3516 33.0501 31.7563 35.9115 30.1246C36.0909 27.7832 36.801 25.4821 38.0275 23.4563C40.5789 19.2431 45.2188 16.4578 50.137 16.1891C50.4204 16.1733 50.7023 16.1662 50.9832 16.1662C54.5159 16.1662 57.6351 17.3871 60.2614 18.9837C61.4838 17.8137 62.8821 16.8793 64.3783 16.2151C66.2772 8.01604 73.2839 1.20557 81.8628 0.143223C82.6264 0.048916 83.4068 0.000488281 84.1822 0.000488281C90.9534 0.000488281 97.3 3.53979 101.136 8.86582C101.914 8.73022 102.718 8.66039 103.538 8.66039C105.49 8.66039 107.432 9.07941 109.155 9.87261C111.161 10.7968 112.944 12.1711 114.441 13.9201C116.347 13.1417 118.278 12.7146 120.222 12.6447C120.387 12.6391 120.551 12.6355 120.717 12.6355C124.367 12.6355 127.736 13.9818 130.208 16.2049C130.549 16.1769 130.895 16.1626 131.244 16.1626C135.989 16.1626 140.61 18.7726 143.015 22.8115C143.349 23.3727 143.646 23.9595 143.906 24.5712C149.78 27.5411 151.358 32.8121 151.543 33.5053C151.664 33.9585 151.736 34.4239 151.758 34.8919L152.707 55.0577C157.722 53.3046 163.182 52.1041 169.035 51.4705C171.966 51.1534 174.922 50.9923 177.822 50.9923C190.828 50.9923 202.812 54.1804 212.479 60.2109C220.07 64.9467 226.99 71.9096 233.047 80.9069C244.067 97.274 249.87 116.365 249.829 136.114C249.791 154.657 244.644 172.991 234.927 189.261V210.582C234.927 215.473 230.948 219.452 226.058 219.452H208.214C191.938 232.13 171.956 240.49 148.782 244.309C143.483 245.182 137.983 245.745 132.375 245.987C128.817 254.84 120.109 261 110.232 261Z" fill="white"/>
<path d="M68.8342 225.328C91.6773 237.897 121.642 240.875 146.666 236.75C169.673 232.958 191.723 223.987 209.116 208.178C244.848 175.696 253.19 123.103 226.54 83.5205C221.599 76.1814 215.519 69.4566 207.949 64.7346C196.53 57.6111 182.299 55.4818 168.697 56.9535C159.034 57.9986 149.36 60.867 141.447 66.5188C123.388 79.4174 116.684 104.854 96.7489 114.679C85.3669 120.289 71.8438 119.557 60.0111 124.147C50.1222 127.982 41.761 135.608 37.14 145.006C30.7934 157.914 32.337 174.838 36.6578 188.06C42.1862 204.975 54.0102 217.171 68.8342 225.328Z" fill="#9ABDFF"/>
<path d="M183.986 105.569C193.36 103.764 199.496 94.7013 197.691 85.3271C195.886 75.9529 186.823 69.8169 177.449 71.6221C168.075 73.4273 161.939 82.4899 163.744 91.8641C165.549 101.238 174.612 107.374 183.986 105.569Z" fill="#FFDFDF"/>
<path d="M117.356 251.31C125.773 246.805 128.944 236.33 124.439 227.913C119.934 219.496 109.459 216.325 101.043 220.83C92.626 225.335 89.4547 235.81 93.9595 244.226C98.4642 252.643 108.939 255.814 117.356 251.31Z" fill="#FFDFDF"/>
<path d="M30.9616 61.5985C28.2695 57.7202 29.5562 51.68 33.595 49.2346C32.888 45.8921 32.7804 42.2916 34.1752 39.1729C35.5699 36.0541 38.7371 33.569 42.1484 33.7607C41.0025 31.244 41.1824 28.167 42.6143 25.8012C44.0463 23.4359 46.6894 21.8495 49.4508 21.6981C54.1381 21.4417 58.0913 24.9412 61.4609 28.2093C61.1764 24.0247 65.2877 20.1178 69.452 20.6138C68.854 13.5235 74.5644 6.48669 81.6257 5.61194C88.6875 4.73718 95.9419 10.1682 97.092 17.1902C98.4745 14.3279 102.467 13.4582 105.354 14.7882C108.242 16.1177 110.085 19.0687 111.016 22.1085C113.382 20.02 116.259 18.273 119.412 18.1603C122.565 18.0472 125.939 20.0113 126.582 23.1005C129.279 20.3951 134.358 21.8342 136.312 25.1166C138.267 28.399 137.767 32.6188 136.394 36.1841C133.75 43.0558 128.307 48.4465 122.664 53.1761C116.192 58.6005 109.248 63.4622 101.936 67.6871C93.9661 72.2923 85.3286 76.2028 76.1488 76.8802C61.7729 77.941 48.128 71.0439 35.4909 64.1086L30.9616 61.5985Z" fill="#FFDFDF"/>
<path opacity="0.63" d="M30.9616 61.5985C28.2695 57.7202 29.5562 51.68 33.595 49.2346C32.888 45.8921 32.7804 42.2916 34.1752 39.1729C35.5699 36.0541 38.7371 33.569 42.1484 33.7607C41.0025 31.244 41.1824 28.167 42.6143 25.8012C44.0463 23.4359 46.6894 21.8495 49.4508 21.6981C54.1381 21.4417 58.0913 24.9412 61.4609 28.2093C61.1764 24.0247 65.2877 20.1178 69.452 20.6138C68.854 13.5235 74.5644 6.48669 81.6257 5.61194C88.6875 4.73718 95.9419 10.1682 97.092 17.1902C98.4745 14.3279 102.467 13.4582 105.354 14.7882C108.242 16.1177 110.085 19.0687 111.016 22.1085C113.382 20.02 116.259 18.273 119.412 18.1603C122.565 18.0472 125.939 20.0113 126.582 23.1005C129.279 20.3951 134.358 21.8342 136.312 25.1166C138.267 28.399 137.767 32.6188 136.394 36.1841C133.75 43.0558 128.307 48.4465 122.664 53.1761C116.192 58.6005 109.248 63.4622 101.936 67.6871C93.9661 72.2923 85.3286 76.2028 76.1488 76.8802C61.7729 77.941 48.128 71.0439 35.4909 64.1086L30.9616 61.5985Z" fill="white"/>
<path d="M34.8308 58.8707C34.3552 56.3173 35.6347 53.5299 37.8817 52.2264C37.35 49.4385 37.5901 46.413 39.0618 43.986C40.5335 41.559 43.3821 39.8788 46.1934 40.2703C47.5372 37.0874 50.5892 34.6874 53.999 34.1317C57.4088 33.5761 61.0648 34.8831 63.3496 37.4748C65.1007 35.0345 68.6629 34.5059 71.5191 35.4367C74.3753 36.3676 76.6917 38.4393 78.9173 40.4569C79.2777 36.0204 81.1863 31.5987 84.6446 28.7965C88.1028 25.9949 93.1903 25.087 97.1573 27.1051C98.2538 23.6729 101.9 21.2459 105.489 21.5589C109.079 21.8719 112.249 24.8928 112.736 28.4626C114.035 25.9582 116.86 24.4304 119.68 24.3539C122.5 24.278 125.26 25.5259 127.345 27.4263C130.932 30.6954 132.558 35.7503 132.389 40.6002C132.22 45.4506 130.423 50.12 128.043 54.349C121.974 65.1316 112.102 73.4474 101.107 79.1226C92.9864 83.3144 83.9936 86.2018 74.8576 85.9703C59.8669 85.59 46.0655 76.7619 36.4467 65.2575L34.8308 58.8707Z" fill="white"/>
<path d="M144.694 139.013L144.505 139.183L136.725 140.192L132.135 140.802L132.059 140.779L123.91 137.958L115.826 142.936L115.778 142.947L98.2139 145.259L98.1094 145.201L91.3066 141.914L85.6864 146.878L85.6681 146.908L78.1241 147.908L70.2803 148.926L70.2166 148.936L62.5538 148.231L42.5776 95.8225L36.5048 79.8724C36.5048 79.8724 33.9656 70.0635 33.7072 63.1241L33.7087 63.1083C33.5955 60.3693 33.88 58.0601 34.7955 57.0191C34.7971 57.0033 34.8123 57.0049 34.8139 56.9896C35.4847 56.2071 36.545 56.1051 38.0738 57.0048C38.1192 57.0247 38.1768 57.0772 38.2375 57.0992C38.4725 57.2628 38.7233 57.428 38.971 57.6242C39.1892 57.8021 39.4227 57.9811 39.6408 58.159C39.9013 58.3878 40.1613 58.6167 40.4203 58.8609C40.4203 58.8609 39.2284 52.3334 47.3118 49.4715C53.2037 47.3876 57.0356 50.2642 58.6735 51.9898C59.3005 52.6458 59.6145 53.1306 59.6145 53.1306C59.6145 53.1306 64.3201 61.4383 72.5809 59.3467C80.8386 57.2862 79.789 48.2945 79.789 48.2945C79.789 48.2945 79.8032 47.982 79.9006 47.4585C80.2967 45.1288 82.0172 38.6456 88.7919 37.1638C95.7283 35.6345 98.948 40.4757 99.7962 42.0937C99.9415 42.3741 100.033 42.5713 100.061 42.605C100.059 42.6208 100.059 42.6208 100.059 42.6208C100.059 42.6208 103.569 52.9303 112.179 51.6095C112.291 51.5891 112.418 51.5697 112.53 51.5493C113.647 51.3429 114.657 50.9539 115.554 50.4284C116.814 49.7183 117.863 48.7528 118.719 47.6751C122.139 43.4094 122.836 37.2983 122.836 37.2983C122.836 37.2983 122.824 36.4348 123.127 35.2409L123.113 35.2241C123.152 35.1492 123.178 35.0421 123.201 34.9662C123.449 34.3468 123.891 34.7974 124.615 35.5881C125.952 37.018 128.274 39.6086 132.381 39.2976L132.398 39.2839C133.345 39.2181 134.168 39.3124 134.836 39.5337C141.081 41.6074 135.878 55.1259 135.878 55.1259L141.526 108.808L144.694 139.013Z" fill="#F25553"/>
<path d="M70.2804 148.926L70.2166 148.935L57.1615 150.661L35.5633 94.8972L22.4847 61.1207C22.4847 61.1207 24.977 55.9032 29.7565 54.7945L29.7876 54.7975C31.3751 54.4326 33.1536 54.5248 35.2197 55.3817L35.2355 55.3833C36.1393 55.7681 37.0905 56.3141 38.0749 57.0043C38.1203 57.0242 38.1779 57.0767 38.2385 57.0986C38.4735 57.2623 38.7243 57.4274 38.9721 57.6237C39.1903 57.8016 39.4237 57.9805 39.6419 58.1584L42.986 68.0759L43.0003 68.0927L44.8935 73.6844L44.892 73.7002L52.8148 97.1662L70.2804 148.926Z" fill="#FFDFDF"/>
<path d="M98.1177 145.281L85.6993 146.911L85.6866 146.878L72.2619 99.7243L68.1501 85.2327L68.1348 85.2311L68.1363 85.2158L65.6028 76.3327L65.6043 76.3169L58.6741 51.9898C59.3011 52.6459 59.6151 53.1307 59.6151 53.1307C59.6151 53.1307 59.9546 44.6961 68.1985 42.6183C76.4593 40.5267 79.7896 48.2945 79.7896 48.2945C79.7896 48.2945 79.8039 47.982 79.9012 47.4585L85.0743 75.2234L85.0728 75.2387L86.8223 84.6113L90.0695 102.062L98.1095 145.201L98.1177 145.281Z" fill="#FFDFDF"/>
<path d="M136.725 140.192L132.135 140.802L132.056 140.81L115.826 142.936L115.779 142.947L109.705 104.638L105.307 76.8059L105.308 76.7901L103.678 66.661L103.68 66.6452L99.7974 42.0934C99.9426 42.3738 100.034 42.571 100.062 42.6047C100.102 42.1851 101.035 33.6195 109.552 31.9598C109.586 31.9317 109.65 31.922 109.682 31.9098C118.544 30.252 122.838 37.2975 122.838 37.2975C122.838 37.2975 122.827 36.434 123.129 35.2401L123.116 35.2233C123.154 35.1483 123.18 35.0413 123.203 34.9653C123.451 34.346 123.893 34.7966 124.617 35.5872L126.277 49.984L126.989 56.1206L126.987 56.1359L132.965 107.686L134.436 120.45L136.725 140.192Z" fill="#FFDFDF"/>
<path d="M113.965 41.3999L114.716 41.2949C116.55 41.0385 118.226 42.3659 118.398 44.2097L119.639 57.532C119.816 59.4395 118.312 61.085 116.397 61.0799C114.794 61.0753 113.434 59.9019 113.194 58.3165L111.204 45.0988C110.934 43.3126 112.175 41.6502 113.965 41.3999Z" fill="white"/>
<path d="M116.572 65.4763C117.947 65.1118 119.337 66.0039 119.579 67.4047L120.954 75.3688C121.197 76.7778 120.172 78.0899 118.746 78.1954L118.253 78.2321C116.954 78.3285 115.811 77.3783 115.668 76.0824L114.787 68.0822C114.655 66.8909 115.414 65.7831 116.572 65.4763Z" fill="white"/>
<path d="M149.063 138.586L144.505 139.183L136.725 140.192L132.135 140.802L132.056 140.81L132.059 140.779L129.216 107.201L128.242 95.6293L125.118 58.9354L125.12 58.9196L124.505 51.6009L124.507 51.5851L123.129 35.2394L123.115 35.2226C123.153 35.1477 123.179 35.0406 123.203 34.9647C123.751 33.0102 125.154 30.3227 128.78 28.9775L128.795 28.979C129.837 28.5773 131.056 28.3025 132.493 28.1894C134.482 28.0512 136.115 28.1924 137.48 28.5115L137.495 28.5131C142.995 29.8568 144.136 34.1373 144.136 34.1373L147.69 109.618L149.063 138.586Z" fill="#F25553"/>
<path opacity="0.36" d="M149.063 138.586L144.505 139.183L136.725 140.192L132.135 140.802L132.056 140.81L115.826 142.936L115.778 142.947L98.214 145.259L98.1095 145.202L98.1177 145.281L85.6993 146.91L85.6865 146.878L85.6682 146.907L78.1242 147.907L70.2804 148.926L70.2167 148.936L57.1616 150.661L35.5638 94.8975L42.5777 95.8222L52.8133 97.1659L72.2619 99.7239L90.0695 102.062L109.705 104.638L129.215 107.202L132.963 107.687L141.527 108.807L147.69 109.619L149.063 138.586Z" fill="#1F1541"/>
<path d="M216.696 109.478H16.7101V211.806H216.696V109.478Z" fill="#1F1541"/>
<path d="M225.012 211.806H216.696V109.478H225.012C226.275 109.478 227.298 110.502 227.298 111.764V209.52C227.298 210.782 226.275 211.806 225.012 211.806Z" fill="#FF9CD4"/>
<path d="M205.899 119.497H26.437V200.036H205.899V119.497Z" fill="#FFDFDF"/>
<g opacity="0.45">
<path d="M22.6433 126.253H211.443" stroke="#1F1541" stroke-width="0.549986" stroke-miterlimit="10"/>
<path d="M22.6433 133.01H211.443" stroke="#1F1541" stroke-width="0.549986" stroke-miterlimit="10"/>
<path d="M22.6433 139.767H211.443" stroke="#1F1541" stroke-width="0.549986" stroke-miterlimit="10"/>
<path d="M22.6433 146.523H211.443" stroke="#1F1541" stroke-width="0.549986" stroke-miterlimit="10"/>
<path d="M22.6433 153.28H211.443" stroke="#1F1541" stroke-width="0.549986" stroke-miterlimit="10"/>
<path d="M22.6433 160.036H211.443" stroke="#1F1541" stroke-width="0.549986" stroke-miterlimit="10"/>
<path d="M22.6433 166.793H211.443" stroke="#1F1541" stroke-width="0.549986" stroke-miterlimit="10"/>
<path d="M22.6433 173.55H211.443" stroke="#1F1541" stroke-width="0.549986" stroke-miterlimit="10"/>
<path d="M22.6433 180.306H211.443" stroke="#1F1541" stroke-width="0.549986" stroke-miterlimit="10"/>
<path d="M22.6433 187.063H211.443" stroke="#1F1541" stroke-width="0.549986" stroke-miterlimit="10"/>
<path d="M22.6433 193.819H211.443" stroke="#1F1541" stroke-width="0.549986" stroke-miterlimit="10"/>
</g>
<path d="M211.638 117.552C213.142 117.552 214.362 116.332 214.362 114.828C214.362 113.324 213.142 112.104 211.638 112.104C210.134 112.104 208.914 113.324 208.914 114.828C208.914 116.332 210.134 117.552 211.638 117.552Z" fill="#FFDFDF"/>
<path d="M214.361 126.111C214.361 127.615 213.142 128.835 211.637 128.835C210.133 128.835 208.914 127.615 208.914 126.111C208.914 124.607 210.133 123.387 211.637 123.387C213.142 123.388 214.361 124.607 214.361 126.111Z" fill="#FFDFDF"/>
<path d="M211.638 140.118C213.142 140.118 214.362 138.899 214.362 137.395C214.362 135.89 213.142 134.671 211.638 134.671C210.134 134.671 208.914 135.89 208.914 137.395C208.914 138.899 210.134 140.118 211.638 140.118Z" fill="#FFDFDF"/>
<path d="M214.361 148.678C214.361 150.182 213.142 151.401 211.637 151.401C210.133 151.401 208.914 150.182 208.914 148.678C208.914 147.173 210.133 145.954 211.637 145.954C213.142 145.954 214.361 147.173 214.361 148.678Z" fill="#FFDFDF"/>
<path d="M211.638 162.685C213.142 162.685 214.362 161.465 214.362 159.961C214.362 158.457 213.142 157.237 211.638 157.237C210.134 157.237 208.914 158.457 208.914 159.961C208.914 161.465 210.134 162.685 211.638 162.685Z" fill="#FFDFDF"/>
<path d="M211.638 173.968C213.142 173.968 214.362 172.748 214.362 171.244C214.362 169.74 213.142 168.521 211.638 168.521C210.134 168.521 208.914 169.74 208.914 171.244C208.914 172.748 210.134 173.968 211.638 173.968Z" fill="#FFDFDF"/>
<path d="M214.361 182.527C214.361 184.031 213.142 185.251 211.637 185.251C210.133 185.251 208.914 184.031 208.914 182.527C208.914 181.023 210.133 179.803 211.637 179.803C213.142 179.803 214.361 181.023 214.361 182.527Z" fill="#FFDFDF"/>
<path d="M211.638 196.534C213.142 196.534 214.362 195.315 214.362 193.81C214.362 192.306 213.142 191.087 211.638 191.087C210.134 191.087 208.914 192.306 208.914 193.81C208.914 195.315 210.134 196.534 211.638 196.534Z" fill="#FFDFDF"/>
<path d="M214.361 205.094C214.361 206.598 213.142 207.817 211.637 207.817C210.133 207.817 208.914 206.598 208.914 205.094C208.914 203.589 210.133 202.37 211.637 202.37C213.142 202.37 214.361 203.59 214.361 205.094Z" fill="#FFDFDF"/>
<path d="M25.6585 114.439C25.6585 115.943 24.4392 117.163 22.9349 117.163C21.4305 117.163 20.2112 115.943 20.2112 114.439C20.2112 112.935 21.4305 111.715 22.9349 111.715C24.4397 111.715 25.6585 112.935 25.6585 114.439Z" fill="#FFDFDF"/>
<path d="M36.9422 114.244C36.9422 115.748 35.7229 116.968 34.2185 116.968C32.7142 116.968 31.4949 115.748 31.4949 114.244C31.4949 112.74 32.7142 111.521 34.2185 111.521C35.7229 111.521 36.9422 112.74 36.9422 114.244Z" fill="#FFDFDF"/>
<path d="M48.6143 114.439C48.6143 115.943 47.395 117.163 45.8907 117.163C44.3864 117.163 43.167 115.943 43.167 114.439C43.167 112.935 44.3864 111.715 45.8907 111.715C47.395 111.715 48.6143 112.935 48.6143 114.439Z" fill="#FFDFDF"/>
<path d="M59.7033 114.439C59.7033 115.943 58.484 117.163 56.9797 117.163C55.4753 117.163 54.256 115.943 54.256 114.439C54.256 112.935 55.4753 111.715 56.9797 111.715C58.484 111.715 59.7033 112.935 59.7033 114.439Z" fill="#FFDFDF"/>
<path d="M70.7917 114.439C70.7917 115.943 69.5724 117.163 68.068 117.163C66.5637 117.163 65.3444 115.943 65.3444 114.439C65.3444 112.935 66.5637 111.715 68.068 111.715C69.5724 111.715 70.7917 112.935 70.7917 114.439Z" fill="#FFDFDF"/>
<path d="M81.8807 114.439C81.8807 115.943 80.6613 117.163 79.157 117.163C77.6527 117.163 76.4333 115.943 76.4333 114.439C76.4333 112.935 77.6527 111.715 79.157 111.715C80.6613 111.715 81.8807 112.935 81.8807 114.439Z" fill="#FFDFDF"/>
<path d="M92.9691 114.439C92.9691 115.943 91.7497 117.163 90.2454 117.163C88.7411 117.163 87.5217 115.943 87.5217 114.439C87.5217 112.935 88.7411 111.715 90.2454 111.715C91.7497 111.715 92.9691 112.935 92.9691 114.439Z" fill="#FFDFDF"/>
<path d="M104.058 114.439C104.058 115.943 102.839 117.163 101.334 117.163C99.83 117.163 98.6106 115.943 98.6106 114.439C98.6106 112.935 99.83 111.715 101.334 111.715C102.839 111.715 104.058 112.935 104.058 114.439Z" fill="#FFDFDF"/>
<path d="M115.146 114.439C115.146 115.943 113.927 117.163 112.423 117.163C110.918 117.163 109.699 115.943 109.699 114.439C109.699 112.935 110.918 111.715 112.423 111.715C113.927 111.715 115.146 112.935 115.146 114.439Z" fill="#FFDFDF"/>
<path d="M126.235 114.439C126.235 115.943 125.016 117.163 123.512 117.163C122.007 117.163 120.788 115.943 120.788 114.439C120.788 112.935 122.007 111.715 123.512 111.715C125.016 111.715 126.235 112.935 126.235 114.439Z" fill="#FFDFDF"/>
<path d="M137.324 114.439C137.324 115.943 136.104 117.163 134.6 117.163C133.096 117.163 131.876 115.943 131.876 114.439C131.876 112.935 133.096 111.715 134.6 111.715C136.104 111.715 137.324 112.935 137.324 114.439Z" fill="#FFDFDF"/>
<path d="M148.413 114.439C148.413 115.943 147.193 117.163 145.689 117.163C144.185 117.163 142.965 115.943 142.965 114.439C142.965 112.935 144.185 111.715 145.689 111.715C147.193 111.715 148.413 112.935 148.413 114.439Z" fill="#FFDFDF"/>
<path d="M159.501 114.439C159.501 115.943 158.282 117.163 156.777 117.163C155.273 117.163 154.054 115.943 154.054 114.439C154.054 112.935 155.273 111.715 156.777 111.715C158.282 111.715 159.501 112.935 159.501 114.439Z" fill="#FFDFDF"/>
<path d="M170.59 114.439C170.59 115.943 169.371 117.163 167.866 117.163C166.362 117.163 165.143 115.943 165.143 114.439C165.143 112.935 166.362 111.715 167.866 111.715C169.371 111.715 170.59 112.935 170.59 114.439Z" fill="#FFDFDF"/>
<path d="M181.679 114.439C181.679 115.943 180.46 117.163 178.955 117.163C177.451 117.163 176.232 115.943 176.232 114.439C176.232 112.935 177.451 111.715 178.955 111.715C180.459 111.715 181.679 112.935 181.679 114.439Z" fill="#FFDFDF"/>
<path d="M192.767 114.439C192.767 115.943 191.548 117.163 190.044 117.163C188.539 117.163 187.32 115.943 187.32 114.439C187.32 112.935 188.539 111.715 190.044 111.715C191.548 111.715 192.767 112.935 192.767 114.439Z" fill="#FFDFDF"/>
<path d="M203.856 114.439C203.856 115.943 202.636 117.163 201.132 117.163C199.628 117.163 198.408 115.943 198.408 114.439C198.408 112.935 199.628 111.715 201.132 111.715C202.636 111.715 203.856 112.935 203.856 114.439Z" fill="#FFDFDF"/>
<path d="M22.9353 208.401C24.4396 208.401 25.659 207.181 25.659 205.677C25.659 204.173 24.4396 202.953 22.9353 202.953C21.4311 202.953 20.2117 204.173 20.2117 205.677C20.2117 207.181 21.4311 208.401 22.9353 208.401Z" fill="#FFDFDF"/>
<path d="M36.9422 205.483C36.9422 206.987 35.7229 208.207 34.2185 208.207C32.7142 208.207 31.4949 206.987 31.4949 205.483C31.4949 203.979 32.7142 202.759 34.2185 202.759C35.7229 202.759 36.9422 203.979 36.9422 205.483Z" fill="#FFDFDF"/>
<path d="M48.6143 205.677C48.6143 207.181 47.395 208.401 45.8907 208.401C44.3864 208.401 43.167 207.181 43.167 205.677C43.167 204.173 44.3864 202.953 45.8907 202.953C47.395 202.954 48.6143 204.173 48.6143 205.677Z" fill="#FFDFDF"/>
<path d="M59.7033 205.677C59.7033 207.181 58.484 208.401 56.9797 208.401C55.4753 208.401 54.256 207.181 54.256 205.677C54.256 204.173 55.4753 202.953 56.9797 202.953C58.484 202.953 59.7033 204.173 59.7033 205.677Z" fill="#FFDFDF"/>
<path d="M68.068 208.401C69.5723 208.401 70.7917 207.181 70.7917 205.677C70.7917 204.173 69.5723 202.953 68.068 202.953C66.5638 202.953 65.3444 204.173 65.3444 205.677C65.3444 207.181 66.5638 208.401 68.068 208.401Z" fill="#FFDFDF"/>
<path d="M81.8806 205.677C81.8806 207.181 80.6612 208.401 79.1569 208.401C77.6526 208.401 76.4332 207.181 76.4332 205.677C76.4332 204.173 77.6526 202.953 79.1569 202.953C80.6612 202.954 81.8806 204.173 81.8806 205.677Z" fill="#FFDFDF"/>
<path d="M90.2454 208.401C91.7497 208.401 92.9691 207.181 92.9691 205.677C92.9691 204.173 91.7497 202.953 90.2454 202.953C88.7412 202.953 87.5217 204.173 87.5217 205.677C87.5217 207.181 88.7412 208.401 90.2454 208.401Z" fill="#FFDFDF"/>
<path d="M101.334 208.401C102.839 208.401 104.058 207.181 104.058 205.677C104.058 204.173 102.839 202.953 101.334 202.953C99.83 202.953 98.6106 204.173 98.6106 205.677C98.6106 207.181 99.83 208.401 101.334 208.401Z" fill="#FFDFDF"/>
<path d="M115.146 205.677C115.146 207.181 113.927 208.401 112.423 208.401C110.918 208.401 109.699 207.181 109.699 205.677C109.699 204.173 110.918 202.953 112.423 202.953C113.927 202.954 115.146 204.173 115.146 205.677Z" fill="#FFDFDF"/>
<path d="M123.512 208.401C125.016 208.401 126.235 207.181 126.235 205.677C126.235 204.173 125.016 202.953 123.512 202.953C122.007 202.953 120.788 204.173 120.788 205.677C120.788 207.181 122.007 208.401 123.512 208.401Z" fill="#FFDFDF"/>
<path d="M134.601 208.401C136.105 208.401 137.324 207.181 137.324 205.677C137.324 204.173 136.105 202.953 134.601 202.953C133.096 202.953 131.877 204.173 131.877 205.677C131.877 207.181 133.096 208.401 134.601 208.401Z" fill="#FFDFDF"/>
<path d="M148.413 205.677C148.413 207.181 147.193 208.401 145.689 208.401C144.185 208.401 142.965 207.181 142.965 205.677C142.965 204.173 144.185 202.953 145.689 202.953C147.193 202.954 148.413 204.173 148.413 205.677Z" fill="#FFDFDF"/>
<path d="M156.778 208.401C158.282 208.401 159.502 207.181 159.502 205.677C159.502 204.173 158.282 202.953 156.778 202.953C155.274 202.953 154.054 204.173 154.054 205.677C154.054 207.181 155.274 208.401 156.778 208.401Z" fill="#FFDFDF"/>
<path d="M167.866 208.401C169.371 208.401 170.59 207.181 170.59 205.677C170.59 204.173 169.371 202.953 167.866 202.953C166.362 202.953 165.143 204.173 165.143 205.677C165.143 207.181 166.362 208.401 167.866 208.401Z" fill="#FFDFDF"/>
<path d="M181.679 205.677C181.679 207.181 180.46 208.401 178.955 208.401C177.451 208.401 176.232 207.181 176.232 205.677C176.232 204.173 177.451 202.953 178.955 202.953C180.459 202.954 181.679 204.173 181.679 205.677Z" fill="#FFDFDF"/>
<path d="M190.044 208.401C191.548 208.401 192.767 207.181 192.767 205.677C192.767 204.173 191.548 202.953 190.044 202.953C188.539 202.953 187.32 204.173 187.32 205.677C187.32 207.181 188.539 208.401 190.044 208.401Z" fill="#FFDFDF"/>
<path d="M201.133 208.401C202.637 208.401 203.856 207.181 203.856 205.677C203.856 204.173 202.637 202.953 201.133 202.953C199.628 202.953 198.409 204.173 198.409 205.677C198.409 207.181 199.628 208.401 201.133 208.401Z" fill="#FFDFDF"/>
<path d="M24.6859 125.527C24.6859 127.031 23.4665 128.251 21.9622 128.251C20.4579 128.251 19.2385 127.031 19.2385 125.527C19.2385 124.023 20.4579 122.803 21.9622 122.803C23.4665 122.804 24.6859 124.023 24.6859 125.527Z" fill="#FFDFDF"/>
<path d="M24.6859 136.811C24.6859 138.315 23.4665 139.535 21.9622 139.535C20.4579 139.535 19.2385 138.315 19.2385 136.811C19.2385 135.307 20.4579 134.087 21.9622 134.087C23.4665 134.087 24.6859 135.307 24.6859 136.811Z" fill="#FFDFDF"/>
<path d="M24.6859 148.094C24.6859 149.598 23.4665 150.818 21.9622 150.818C20.4579 150.818 19.2385 149.598 19.2385 148.094C19.2385 146.59 20.4579 145.37 21.9622 145.37C23.4665 145.37 24.6859 146.59 24.6859 148.094Z" fill="#FFDFDF"/>
<path d="M24.6859 159.377C24.6859 160.882 23.4665 162.101 21.9622 162.101C20.4579 162.101 19.2385 160.882 19.2385 159.377C19.2385 157.873 20.4579 156.654 21.9622 156.654C23.4665 156.654 24.6859 157.873 24.6859 159.377Z" fill="#FFDFDF"/>
<path d="M24.6859 170.66C24.6859 172.165 23.4665 173.384 21.9622 173.384C20.4579 173.384 19.2385 172.165 19.2385 170.66C19.2385 169.156 20.4579 167.937 21.9622 167.937C23.4665 167.937 24.6859 169.156 24.6859 170.66Z" fill="#FFDFDF"/>
<path d="M24.6859 181.943C24.6859 183.448 23.4665 184.667 21.9622 184.667C20.4579 184.667 19.2385 183.448 19.2385 181.943C19.2385 180.439 20.4579 179.22 21.9622 179.22C23.4665 179.22 24.6859 180.44 24.6859 181.943Z" fill="#FFDFDF"/>
<path d="M24.6859 193.227C24.6859 194.731 23.4665 195.95 21.9622 195.95C20.4579 195.95 19.2385 194.731 19.2385 193.227C19.2385 191.722 20.4579 190.503 21.9622 190.503C23.4665 190.503 24.6859 191.723 24.6859 193.227Z" fill="#FFDFDF"/>
<path d="M87.0684 135.481V152.698H85.3225V138.924L78.5589 150.509H77.6979L70.9338 138.998V152.698H69.1874V135.481H70.6881L78.1649 148.246L85.5682 135.481H87.0684Z" fill="#1F1541"/>
<path d="M93.6083 144.089C93.6083 139.072 97.4453 135.333 102.66 135.333C107.825 135.333 111.686 139.047 111.686 144.089C111.686 149.131 107.825 152.845 102.66 152.845C97.4453 152.846 93.6083 149.107 93.6083 144.089ZM109.866 144.089C109.866 139.982 106.792 136.956 102.66 136.956C98.5025 136.956 95.4037 139.981 95.4037 144.089C95.4037 148.196 98.5025 151.222 102.66 151.222C106.792 151.222 109.866 148.197 109.866 144.089Z" fill="#1F1541"/>
<path d="M132.025 135.481L124.4 152.698H122.605L114.98 135.481H116.947L123.539 150.435L130.18 135.481H132.025Z" fill="#1F1541"/>
<path d="M136.966 135.481H138.786V152.698H136.966V135.481Z" fill="#1F1541"/>
<path d="M159.028 151.124V152.698H146.853V135.481H158.659V137.055H148.673V143.179H157.577V144.729H148.673V151.124H159.028V151.124Z" fill="#1F1541"/>
<path d="M54.6907 166.568H48.6398V164.993H62.561V166.568H56.5106V182.21H54.6907V166.568Z" fill="#1F1541"/>
<path d="M66.1508 173.602C66.1508 168.584 69.9878 164.845 75.2022 164.845C80.3671 164.845 84.2286 168.56 84.2286 173.602C84.2286 178.644 80.3671 182.357 75.2022 182.357C69.9873 182.357 66.1508 178.619 66.1508 173.602ZM82.4087 173.602C82.4087 169.494 79.3343 166.469 75.2022 166.469C71.045 166.469 67.9462 169.494 67.9462 173.602C67.9462 177.709 71.045 180.734 75.2022 180.734C79.3343 180.734 82.4087 177.709 82.4087 173.602Z" fill="#1F1541"/>
<path d="M105.157 164.993V182.21H103.657L92.5888 168.24V182.21H90.7689V164.993H92.2697L103.362 178.964V164.993H105.157Z" fill="#1F1541"/>
<path d="M113.221 164.993H115.041V182.21H113.221V164.993Z" fill="#1F1541"/>
<path d="M135.234 173.602H136.98V180.169C135.357 181.62 133.044 182.357 130.659 182.357C125.42 182.357 121.583 178.644 121.583 173.602C121.583 168.56 125.42 164.845 130.683 164.845C133.29 164.845 135.553 165.682 137.078 167.33L135.946 168.486C134.496 167.059 132.774 166.469 130.757 166.469C126.502 166.469 123.378 169.494 123.378 173.602C123.378 177.685 126.502 180.735 130.733 180.735C132.381 180.735 133.905 180.366 135.234 179.407V173.602Z" fill="#1F1541"/>
<path d="M158.966 164.993V182.21H157.171V174.266H146.398V182.21H144.578V164.993H146.398V172.667H157.171V164.993H158.966Z" fill="#1F1541"/>
<path d="M170.377 166.568H164.326V164.993H178.247V166.568H172.197V182.21H170.377V166.568Z" fill="#1F1541"/>
<path d="M154.832 88.0802C156.929 82.225 164.231 78.857 170.046 81.0622C175.861 83.2675 179.093 90.6315 176.78 96.4041C175.541 99.4959 171.98 102.175 169.002 100.682C166.945 99.6503 166.137 97.075 166.214 94.7749C166.373 90.0759 169.291 85.8943 172.692 82.6481C175.968 79.5207 179.974 76.9046 184.47 76.3566C188.967 75.8086 193.96 77.7549 196.006 81.7958C197.486 84.7183 197.254 88.2514 196.255 91.3712C195.392 94.0638 193.203 96.9888 190.426 96.4587C187.741 95.9458 186.722 92.5941 186.855 89.8643C187.155 83.7028 190.778 77.8033 196.136 74.7472C201.495 71.6912 208.417 71.5775 213.873 74.4557" stroke="#1F1541" stroke-width="1.23955" stroke-miterlimit="10"/>
<path d="M89.3533 218.976C89.4073 224.008 92.13 228.935 96.3615 231.659C100.593 234.382 106.205 234.819 110.808 232.784C113.485 231.601 115.882 229.52 116.861 226.762C117.839 224.004 117.109 220.565 114.729 218.863C112.348 217.161 108.439 217.882 107.238 220.55C106.753 221.628 106.724 222.858 106.862 224.032C107.49 229.373 111.59 234.028 116.683 235.757C121.776 237.486 127.624 236.42 132.065 233.385C135.073 231.33 137.535 228.312 138.378 224.768" stroke="#1F1541" stroke-width="1.23955" stroke-miterlimit="10"/>
</svg>
