<svg width="273" height="273" viewBox="0 0 273 273" fill="none" xmlns="http://www.w3.org/2000/svg">
<g clip-path="url(#clip0_6002_202)">
<path d="M207.041 240.073C201.74 240.073 196.517 239.348 191.519 237.915C184.225 235.82 177.677 232.376 171.343 229.046L167.624 227.104C161.424 223.908 156.185 221.572 150.707 220.532C148.372 220.087 146.017 219.871 143.503 219.871C133.524 219.871 123.351 223.338 112.581 227.009C109.816 227.951 106.957 228.925 104.102 229.837C96.024 232.424 86.3874 235.073 76.2102 235.073C75.7815 235.073 75.3501 235.068 74.9204 235.059C63.0902 234.804 50.9358 230.916 38.7975 223.502C22.4228 213.496 10.253 199.367 4.52742 183.716C0.863778 173.716 -0.587601 162.033 0.213803 148.993C1.11065 134.425 4.52902 120.372 10.3836 107.168L8.77225 103.834C8.23105 103.275 7.77356 102.627 7.42644 101.909C7.07613 101.182 6.85538 100.423 6.75461 99.6603L4.16537 94.3011C3.45248 93.568 2.89102 92.6844 2.52204 91.6932C1.82568 89.8206 1.90246 87.7891 2.73745 85.9746C3.81666 83.6328 6.03105 82.0278 8.54244 81.6946L39.0912 66.9334C59.2837 48.1161 85.5908 36.2657 113.294 33.5367C117.381 33.132 121.557 32.9268 125.703 32.9268C149.275 32.9268 173.199 39.3327 196.811 51.9669C227.343 68.3053 252.824 94.9473 264.973 123.233C274.329 145.051 275.529 167.482 268.445 188.105C265.007 198.125 254.705 222.629 233.369 233.709C230.36 235.273 227.19 236.566 223.95 237.549C223.888 237.57 223.826 237.59 223.784 237.603C218.36 239.242 212.726 240.073 207.041 240.073C207.042 240.073 207.041 240.072 207.041 240.073Z" fill="white"/>
<path d="M261.792 185.331C256.29 201.364 245.475 218.991 230.15 226.949C227.494 228.33 224.707 229.463 221.851 230.326L221.78 230.349C208.345 234.817 197.228 219.053 184.802 213.206C172.747 207.534 161.479 203.363 147.983 201.926C133.353 200.368 115.564 218.283 101.992 222.616C93.1491 225.449 84.2356 227.704 75.121 227.503C63.5745 227.255 52.3937 223.005 42.5353 216.984C28.663 208.507 16.8093 196.075 11.2251 180.809C7.51775 170.691 6.66782 159.711 7.32899 148.956C8.26157 133.808 12.0868 119.546 18.2618 106.618C18.6985 105.686 19.1592 104.753 19.6311 103.832C20.0678 102.97 20.5167 102.12 20.9769 101.27C22.5237 98.4123 24.1883 95.6263 25.9708 92.9224C26.2422 92.4975 26.5259 92.0842 26.809 91.671C28.0135 89.8885 29.265 88.1412 30.5751 86.4291C31.1893 85.6143 31.8265 84.7996 32.4642 83.9972C34.0702 82.0019 35.7466 80.0536 37.4699 78.1767C38.1785 77.3977 38.8984 76.6416 39.6422 75.8861C40.7875 74.6816 41.9797 73.501 43.196 72.368C61.9919 54.5286 86.7262 42.8051 114.034 40.1129C141.85 37.3621 169.111 44.6819 193.514 57.7401C220.055 71.943 246.1 96.6655 258.509 125.556C266.549 144.304 268.84 164.812 261.792 185.331Z" fill="#9ABDFF"/>
<path d="M162.917 73.0454C164.563 62.7845 157.579 53.1319 147.318 51.4858C137.057 49.8397 127.405 56.8235 125.758 67.0845C124.112 77.3454 131.096 86.998 141.357 88.6441C151.618 90.2901 161.271 83.3064 162.917 73.0454Z" fill="#FFDFDF"/>
<path d="M242.012 183.064C252.249 181.279 259.101 171.533 257.316 161.296C255.53 151.059 245.784 144.207 235.547 145.993C225.31 147.778 218.459 157.524 220.244 167.761C222.029 177.998 231.775 184.85 242.012 183.064Z" fill="#FFDFDF"/>
<path d="M59.6973 209.637C69.9583 207.991 76.942 198.339 75.296 188.078C73.6499 177.817 63.9973 170.833 53.7363 172.479C43.4754 174.125 36.4916 183.778 38.1377 194.039C39.7838 204.3 49.4364 211.283 59.6973 209.637Z" fill="#FFDFDF"/>
<path d="M106.492 41.783L140.053 111.24L43.1223 158.077L9.56091 88.6201L22.0379 82.5911L25.0377 82.4194L25.5378 80.8998L34.2061 76.7115L37.472 76.6113L37.7066 75.0202L46.3749 70.8319L50.224 70.8025L49.8748 69.1405L58.5431 64.9517L62.3832 64.5406L62.0436 63.2604L70.7118 59.0721L73.8657 58.9132L74.2118 57.3807L82.8715 53.1967L86.1182 52.9232L86.3806 51.5011L95.0398 47.3171L98.889 47.3869L98.5397 45.6258L106.492 41.783Z" fill="#1F1541"/>
<path d="M14.1901 98.5691C14.0499 98.5691 13.915 98.4896 13.8499 98.3547C13.7593 98.167 13.8377 97.942 14.0259 97.8509L110.507 51.2793C110.695 51.1892 110.921 51.2676 111.012 51.4558C111.102 51.6435 111.024 51.8685 110.836 51.9597L14.3544 98.5312C14.301 98.5568 14.2456 98.5691 14.1901 98.5691Z" fill="#FFDFDF"/>
<path d="M19.0336 108.602C18.9499 108.602 18.8672 108.573 18.799 108.521C18.6854 108.43 18.6337 108.283 18.6652 108.142L21.6858 94.6226L9.40289 88.9626C9.21307 88.8763 9.13096 88.6513 9.21787 88.4625C9.30531 88.2721 9.52979 88.1879 9.71854 88.278L22.2792 94.0649C22.4408 94.1384 22.5288 94.316 22.4898 94.4893L19.5727 107.544L115.954 60.9727C116.143 60.8836 116.368 60.9609 116.459 61.1492C116.55 61.3358 116.471 61.5619 116.283 61.653L19.1978 108.564C19.1456 108.589 19.0896 108.602 19.0336 108.602Z" fill="#FFDFDF"/>
<path d="M38.0551 86.5058L37.3678 99.3645L34.3121 100.841L34.9759 88.396L22.0377 82.591L25.5377 80.8997L38.0551 86.5058Z" fill="#FFDFDF"/>
<path d="M50.224 80.6256L49.5362 93.4848L46.4804 94.9613L47.1442 82.5163L34.2061 76.7113L37.7065 75.02L50.224 80.6256Z" fill="#FFDFDF"/>
<path d="M62.3831 74.7502L61.7049 87.6047L58.6491 89.0816L59.3129 76.6367L46.3748 70.8317L49.8747 69.1404L62.3831 74.7502Z" fill="#FFDFDF"/>
<path d="M74.5519 68.8706L73.8731 81.7251L70.8178 83.2015L71.4817 70.7571L58.543 64.9516L62.0434 63.2603L74.5519 68.8706Z" fill="#FFDFDF"/>
<path d="M86.7201 62.9907L86.0419 75.8452L82.9861 77.3216L83.65 64.8767L70.7118 59.0717L74.2117 57.3804L86.7201 62.9907Z" fill="#FFDFDF"/>
<path d="M98.8889 57.1108L98.201 69.9701L95.1458 71.4465L95.8096 59.0015L82.8715 53.1966L86.3805 51.501L98.8889 57.1108Z" fill="#FFDFDF"/>
<path d="M111.057 51.2311L110.37 64.0898L107.314 65.5668L107.978 53.1218L95.0397 47.3168L98.5396 45.6255L111.057 51.2311Z" fill="#FFDFDF"/>
<path d="M29.2333 114.336C29.0931 114.336 28.9582 114.256 28.8932 114.121C28.8025 113.935 28.8809 113.709 29.0691 113.617L113.03 73.0481C113.217 72.9591 113.443 73.0364 113.534 73.2236C113.625 73.4113 113.547 73.6373 113.358 73.7285L29.3976 114.298C29.3448 114.323 29.2888 114.336 29.2333 114.336Z" fill="#FFDFDF"/>
<path d="M35.6467 127.609C35.5064 127.609 35.3715 127.529 35.3065 127.394C35.2158 127.208 35.2942 126.982 35.4824 126.89L119.443 86.3211C119.631 86.2326 119.857 86.3094 119.948 86.4965C120.038 86.6847 119.96 86.9103 119.772 87.0015L35.8109 127.571C35.7581 127.596 35.7021 127.609 35.6467 127.609Z" fill="#FFDFDF"/>
<path d="M42.0606 140.882C41.9204 140.882 41.7855 140.802 41.7204 140.667C41.6298 140.481 41.7082 140.255 41.8964 140.163L125.857 99.594C126.044 99.505 126.271 99.5823 126.362 99.7695C126.452 99.9571 126.374 100.183 126.186 100.274L42.2248 140.844C42.1721 140.869 42.1161 140.882 42.0606 140.882Z" fill="#FFDFDF"/>
<path d="M52.6641 119.291C52.5238 119.291 52.3889 119.212 52.3239 119.077L45.9478 105.881C45.8572 105.695 45.9356 105.468 46.1238 105.377C46.311 105.288 46.537 105.366 46.6282 105.553L53.0043 118.748C53.0949 118.936 53.0165 119.162 52.8283 119.253C52.7755 119.278 52.7195 119.291 52.6641 119.291Z" fill="#FFDFDF"/>
<path d="M83.0571 121.025C82.9169 121.025 82.782 120.946 82.717 120.811L76.3409 107.614C76.2503 107.428 76.3286 107.202 76.5169 107.11C76.704 107.02 76.9301 107.099 77.0213 107.287L83.3973 120.484C83.488 120.67 83.4096 120.896 83.2214 120.987C83.1686 121.013 83.1126 121.025 83.0571 121.025Z" fill="#FFDFDF"/>
<path d="M94.683 98.9877C94.5428 98.9877 94.4079 98.9082 94.3429 98.7744L87.9663 85.5787C87.8756 85.3905 87.954 85.1649 88.1422 85.0738C88.3299 84.9836 88.556 85.062 88.6466 85.2492L95.0232 98.4449C95.1139 98.6331 95.0355 98.8587 94.8473 98.9498C94.7945 98.9749 94.7385 98.9877 94.683 98.9877Z" fill="#FFDFDF"/>
<path d="M140.842 80.2471C140.842 80.2471 139.135 82.3752 141.17 85.9332C143.205 89.4918 147.313 94.6276 147.313 94.6276L162.721 81.5823L151.114 74.9055L141.356 79.939L140.842 80.2471Z" fill="#1F1541"/>
<path d="M189.27 143.132C191.489 142.289 193.709 141.445 195.928 140.602C199.052 139.414 202.236 138.194 204.831 136.087C207.425 133.979 209.378 130.796 209.151 127.461C209.005 125.322 207.988 123.245 208.262 121.119C208.484 119.396 209.519 117.907 210.446 116.439C212.431 113.295 214.057 109.867 214.701 106.205C215.344 102.543 214.941 98.6189 213.09 95.3941C204.968 94.8327 196.929 99.8256 192.566 106.699C188.203 113.572 186.793 121.932 186.614 130.071C186.536 133.609 186.673 137.154 187.087 140.669L189.27 143.132Z" fill="#5352ED"/>
<path d="M160.461 136.332V152.818H190.814L193.28 127.395L160.461 136.332Z" fill="#FF9CD4"/>
<path d="M143.938 99.4817L144.085 98.2148C146.135 85.4318 156.147 76.3737 169.304 74.82C185.282 72.9335 199.809 84.728 201.75 101.164C202.804 110.094 199.905 118.537 194.496 124.707C192.245 133.008 185.123 137.834 182.759 139.075C175.632 142.813 151.242 140.406 146.285 136.177C138.457 129.497 143.938 99.4817 143.938 99.4817Z" fill="#FF9CD4"/>
<path d="M188.41 121.928C188.989 126.835 193.437 130.343 198.344 129.764C203.251 129.184 206.759 124.737 206.18 119.83C205.6 114.923 201.153 111.414 196.245 111.994C191.338 112.573 187.83 117.021 188.41 121.928Z" fill="#FF9CD4"/>
<path d="M194.248 125.544C194.217 125.544 194.186 125.541 194.154 125.535C193.907 125.484 193.745 125.246 193.79 124.998C194.59 120.483 198.447 116.619 202.96 115.81C203.215 115.765 203.455 115.933 203.5 116.186C203.546 116.439 203.378 116.681 203.124 116.726C199.769 117.327 196.809 119.767 195.414 122.875C196.478 122.086 197.497 121.555 198.524 121.255C199.845 120.867 201.199 120.885 202.338 121.303C202.579 121.392 202.703 121.659 202.615 121.9C202.526 122.141 202.258 122.265 202.018 122.176C201.065 121.827 199.918 121.817 198.786 122.148C197.812 122.433 196.835 122.958 195.796 123.752C195.163 124.238 194.814 124.693 194.7 125.185C194.651 125.399 194.46 125.544 194.248 125.544Z" fill="#1F1541"/>
<path d="M166.403 110.399C166.571 111.781 167.826 112.767 169.209 112.6C170.591 112.433 171.576 111.177 171.409 109.794C171.242 108.412 169.986 107.426 168.604 107.593C167.221 107.761 166.236 109.017 166.403 110.399Z" fill="#1F1541"/>
<path d="M146.682 109.594C146.848 110.976 148.105 111.962 149.487 111.795C150.87 111.628 151.855 110.372 151.688 108.99C151.521 107.608 150.265 106.622 148.882 106.789C147.499 106.956 146.514 108.212 146.682 109.594Z" fill="#1F1541"/>
<path d="M156.183 118.195C156.014 118.199 155.848 118.11 155.763 117.951L154.018 114.679C153.918 114.491 153.959 114.262 154.115 114.12L155.582 112.794C156.445 112.015 156.7 110.897 156.41 109.167C156.368 108.916 156.537 108.678 156.788 108.636C157.042 108.599 157.277 108.764 157.319 109.015C157.534 110.302 157.653 112.165 156.2 113.478L155 114.562L156.576 117.517C156.696 117.742 156.61 118.021 156.386 118.141C156.321 118.175 156.252 118.193 156.183 118.195Z" fill="#1F1541"/>
<path d="M158.046 122.738C155.558 122.81 154.092 119.952 154.028 119.823C153.914 119.596 154.006 119.32 154.233 119.206C154.458 119.092 154.736 119.182 154.851 119.41C154.865 119.438 156.261 122.152 158.37 121.78C160.486 121.402 160.911 118.929 160.928 118.824C160.968 118.573 161.201 118.404 161.455 118.442C161.706 118.482 161.878 118.717 161.838 118.968C161.817 119.1 161.299 122.192 158.533 122.687C158.366 122.717 158.203 122.734 158.046 122.738Z" fill="#1F1541"/>
<path d="M203.218 113.913C201.44 112.265 198.078 111.681 195.729 112.279C192.349 113.139 189.687 115.725 188.542 119.02C184.158 115.915 181.376 110.127 181.854 104.776C178.911 102.481 176.737 99.2162 175.752 95.616C174.766 92.0159 174.976 88.0995 176.34 84.6251C180.636 82.1964 184.856 79.8199 189.578 78.3845C191.12 79.1838 193.188 80.1729 194.73 80.9722C200.719 84.0765 206.883 87.3215 211.143 92.5517C212.431 94.1343 213.549 95.9456 213.83 97.9669C214.371 101.863 211.77 105.424 209.314 108.496C207.675 110.545 204.856 111.864 203.218 113.913Z" fill="#5352ED"/>
<path d="M145.619 99.93C145.067 100.79 144.948 101.942 145.644 102.696C146.31 103.417 147.487 103.574 148.553 103.565C149.346 103.558 150.14 103.488 150.921 103.355C151.754 103.213 152.605 102.985 153.241 102.485C154.2 101.731 154.47 100.385 153.857 99.4118C152.312 96.958 147.032 97.7279 145.619 99.93Z" fill="#5352ED"/>
<path d="M167.218 100.49C166.504 101.22 166.155 102.324 166.684 103.204C167.189 104.045 168.311 104.436 169.356 104.643C170.134 104.797 170.926 104.889 171.718 104.916C172.563 104.946 173.441 104.895 174.166 104.534C175.257 103.99 175.793 102.726 175.39 101.649C174.375 98.9332 169.048 98.6191 167.218 100.49Z" fill="#5352ED"/>
<path d="M140.829 85.1194C140.926 85.3487 141.01 85.5779 141.107 85.8072C141.034 85.6627 140.926 85.4334 140.829 85.1194Z" fill="#F25553"/>
<path d="M210.723 121.738C210.723 121.738 207.416 119.216 202.576 115.595C202.407 115.474 202.227 115.341 202.045 115.196C192.221 107.882 176.603 96.428 168.903 91.9145C163.75 88.8848 159.127 85.8194 155.168 83.4659C154.987 83.3571 154.806 83.2606 154.637 83.1518C149.821 80.3397 146.007 78.6622 143.413 79.5553C140.154 80.6777 140.275 83.2003 140.697 84.721C138.875 79.5431 140.383 74.0031 150.787 69.9603C156.158 67.8723 166.707 67.6793 177.931 69.562C178.353 69.6223 178.776 69.6948 179.199 69.7791C186.851 71.1553 194.732 73.5088 201.418 76.876C201.684 76.997 201.949 77.1415 202.215 77.2743C205.582 79.0365 208.624 81.0643 211.158 83.3571C226.413 97.2129 210.723 121.738 210.723 121.738Z" fill="#F25553"/>
<path d="M179.198 69.7788C175.915 70.8287 172.608 72.0481 169.434 73.5443C163.665 76.2476 158.873 79.5791 155.168 83.4651C154.987 83.3563 154.806 83.2598 154.637 83.151C158.402 79.168 163.291 75.7646 169.181 73.001C172.041 71.661 174.986 70.5264 177.931 69.5613C178.353 69.6221 178.775 69.6946 179.198 69.7788Z" fill="#1F1541"/>
<path d="M205.087 95.1734C205.002 102.125 203.795 109.174 202.576 115.595C202.407 115.474 202.226 115.341 202.045 115.196C203.24 108.872 204.399 101.968 204.483 95.1734C204.568 88.294 203.541 82.1627 201.418 76.876C201.683 76.997 201.949 77.1415 202.214 77.2743C204.217 82.4762 205.171 88.4865 205.087 95.1734Z" fill="#1F1541"/>
<path d="M160.5 140.145L184.035 141.569L160.423 148.041L160.5 140.145Z" fill="#1F1541"/>
<path d="M225.346 229.115L221.85 230.325L221.78 230.349C212.641 233.111 202.7 233.265 193.515 230.632C186.159 228.519 179.383 224.753 172.558 221.187C172.003 220.904 171.449 220.609 170.894 220.325C164.849 217.208 158.721 214.363 152.074 213.1C135.144 209.877 118.71 217.28 101.992 222.616C101.083 214.718 100.693 206.914 102.334 204.812C105.959 200.195 109.772 197.787 109.772 197.787L107.871 187.704L107.765 187.126L108.899 186.771L118.615 183.714C118.615 183.714 118.639 183.572 118.675 183.312V183.3C119.005 181.069 120.729 170.195 123.48 163.513C123.716 162.946 123.952 162.403 124.2 161.907C125.062 160.16 126.018 158.873 127.057 158.389C127.388 158.235 127.777 158.082 128.226 157.928C128.71 157.763 129.265 157.598 129.867 157.444C130.221 157.338 130.611 157.232 131.012 157.137C132.028 156.877 133.138 156.629 134.33 156.37C134.849 156.264 135.381 156.158 135.924 156.051C144.318 154.386 154.991 152.97 154.991 152.97L156.715 146.854C157.01 145.839 157.931 145.13 158.994 145.13H192.052C193.079 145.13 193.988 145.791 194.307 146.771L197.4 156.382C197.4 156.382 219.301 172.863 225.334 192.757C231.355 212.651 225.346 229.115 225.346 229.115Z" fill="#5352ED"/>
<path d="M108.621 169.987C108.394 169.987 108.177 169.856 108.08 169.634C107.949 169.336 108.085 168.987 108.383 168.856L130.25 159.253L127.486 146.157C127.419 145.838 127.623 145.524 127.942 145.457C128.263 145.395 128.574 145.593 128.642 145.913L131.505 159.477C131.563 159.751 131.421 160.027 131.165 160.14L108.858 169.937C108.781 169.971 108.7 169.987 108.621 169.987Z" fill="#1F1541"/>
<path d="M145.546 143.728L67.175 182.111C67.175 182.111 67.175 182.111 67.1633 182.099C66.6674 181.568 54.9791 168.687 51.0478 149.194C47.0215 129.301 55.1092 112.571 55.1092 112.571L141.933 124.035C153.184 132.465 145.546 143.728 145.546 143.728Z" fill="#F25553"/>
<g opacity="0.56">
<path d="M67.175 182.111C67.175 182.111 67.175 182.111 67.1633 182.099C66.6674 181.568 54.9791 168.687 51.0478 149.194C47.0215 129.301 55.1092 112.571 55.1092 112.571C55.1092 112.571 68.179 126.644 69.1825 147.14C70.186 167.636 67.175 182.111 67.175 182.111Z" fill="#1F1541"/>
</g>
<path d="M109.073 187.031C109.073 187.031 101.737 176.229 102.943 164.624L123.743 154.476C123.743 154.476 127.762 156.284 128.515 158.545C129.269 160.806 130.173 164.725 130.173 164.725C130.173 164.725 133.338 155.983 135.448 155.531C137.558 155.078 135.9 181.605 135.9 181.605L109.976 189.292L109.073 187.031Z" fill="#FF9CD4"/>
<path d="M107.766 187.131L138.312 178.289L141.929 189.342C141.929 189.342 157.202 193.763 162.829 207.227L113.594 215.065L107.766 187.131Z" fill="#5352ED"/>
<path d="M172.559 221.187C172.004 220.904 171.449 220.608 170.894 220.325C169.43 216.902 167.636 212.804 165.511 208.07C158.285 192.072 143.208 189.747 143.055 189.723C142.972 189.688 142.889 189.664 142.807 189.629C142.701 189.558 142.63 189.463 142.582 189.346L138.745 178.614L138.438 178.708L136.018 179.417L109.194 187.327L107.931 187.693C107.919 187.693 107.895 187.704 107.884 187.704C107.872 187.704 107.872 187.704 107.872 187.704C107.576 187.764 107.282 187.587 107.199 187.303C107.105 186.984 107.282 186.653 107.6 186.571L108.604 186.275L118.675 183.312V183.3L136.089 178.164L138.946 177.326C139.253 177.232 139.572 177.397 139.666 177.692L143.574 188.625C145.865 189.061 158.497 192.108 165.605 205.591C165.794 205.956 165.983 206.323 166.172 206.712C166.314 206.995 166.455 207.291 166.585 207.586C169.005 212.946 170.989 217.491 172.559 221.187Z" fill="#1F1541"/>
<path d="M165.844 206.813C165.708 206.813 165.573 206.767 165.462 206.672C165.213 206.462 165.183 206.089 165.393 205.841L190.111 176.702C190.323 176.452 190.695 176.423 190.943 176.634C191.192 176.844 191.222 177.217 191.011 177.465L166.294 206.604C166.177 206.743 166.011 206.813 165.844 206.813Z" fill="#1F1541"/>
</g>
<defs>
<clipPath id="clip0_6002_202">
<rect width="273" height="273" fill="white"/>
</clipPath>
</defs>
</svg>
