<svg width="197" height="197" viewBox="0 0 197 197" fill="none" xmlns="http://www.w3.org/2000/svg">
<g clip-path="url(#clip0_6002_950)">
<path d="M108.316 177.545C105.829 177.545 103.305 177.445 100.816 177.249C81.0889 175.695 61.1188 167.571 43.0652 153.759C41.3076 152.414 39.5496 150.984 37.819 149.491L34.3557 149.753C34.2922 149.76 34.2279 149.767 34.1645 149.772C34.0233 149.783 33.8824 149.788 33.742 149.788C31.6123 149.788 29.6404 148.488 28.842 146.431L25.0955 136.776C13.8338 123.775 5.95498 109.383 2.2874 95.0982C-1.96388 78.5395 -0.266291 62.5759 7.19662 48.9345C10.8223 42.3073 21.0505 26.3426 37.6758 21.2471C41.5573 20.0574 45.637 19.4541 49.8025 19.4541C56.1642 19.4541 62.5144 20.8843 68.1666 23.5899C73.1516 25.9763 77.451 29.2168 81.6091 32.3511C83.2644 33.5981 84.8566 34.7982 86.4556 35.9213C87.4583 35.5277 88.3167 35.1887 89.0101 34.9132C89.6269 34.308 90.3799 33.8474 91.2252 33.5704C91.7723 33.3865 92.3826 33.2872 93.0005 33.2872C95.4634 33.2872 97.6373 34.8586 98.4099 37.198L100.065 42.2265C102.292 42.6562 104.691 42.8667 107.328 42.8667C112.524 42.8667 117.876 42.0699 123.543 41.2268C129.41 40.3538 135.476 39.4508 141.591 39.4508C145.132 39.4508 148.351 39.7486 151.433 40.3615C159.878 42.0398 168.139 46.3023 175.987 53.0291C186.592 62.12 193.72 73.591 196.057 85.3279C197.556 92.8524 197.267 101.273 195.199 110.355C186.191 149.914 150.461 177.545 108.318 177.545C108.316 177.545 108.319 177.545 108.316 177.545Z" fill="white"/>
<path d="M8.12098 94.5773C13.7259 116.408 29.589 137.047 47.0012 150.369C63.0097 162.617 81.7143 171.197 101.97 172.793C143.585 176.073 181.653 150.194 190.812 109.974C192.51 102.517 193.147 94.7054 191.64 87.1413C189.368 75.7311 182.284 65.5059 173.305 57.8083C166.926 52.34 159.393 47.9444 151.148 46.3053C132.331 42.5647 112.34 53.3997 94.3489 46.6589C84.0768 42.8101 76.5327 33.8578 66.6369 29.1209C58.3664 25.1621 48.6129 24.4095 39.9573 27.0621C28.0688 30.7054 18.3215 41.697 12.5504 52.2457C5.16675 65.7418 4.48379 80.4102 8.12098 94.5773Z" fill="#F25553"/>
<path d="M162.681 87.3247C169.984 85.1356 174.131 77.4402 171.942 70.1365C169.753 62.8328 162.057 58.6865 154.753 60.8756C147.45 63.0647 143.304 70.7601 145.493 78.0638C147.682 85.3675 155.377 89.5138 162.681 87.3247Z" fill="#FFDFDF"/>
<path d="M45.5463 69.9008C53.0353 68.4682 57.945 61.2357 56.5123 53.7467C55.0796 46.2577 47.8471 41.3481 40.3581 42.7808C32.8691 44.2135 27.9595 51.4459 29.3922 58.9349C30.8249 66.4239 38.0573 71.3335 45.5463 69.9008Z" fill="#FFDFDF"/>
<path d="M83.8761 160.581C90.6133 157.011 93.181 148.655 89.6111 141.918C86.0412 135.181 77.6856 132.613 70.9484 136.183C64.2112 139.753 61.6436 148.109 65.2135 154.846C68.7834 161.583 77.1389 164.151 83.8761 160.581Z" fill="#FFDFDF"/>
<path d="M20.5688 64.3494L31.8994 109.711L54.5163 103.785L55.5021 107.633C55.5021 107.633 103.867 96.9936 129.74 85.5826L114.655 50.3639L98.9067 55.2885L93.7401 39.7701C93.7401 39.7709 40.4231 61.2301 20.5688 64.3494Z" fill="#FF9CD4"/>
<path d="M31.899 109.712C31.899 109.712 81.353 98.9122 107.565 81.7528L93.7397 39.771" stroke="#1F1541" stroke-width="0.876458" stroke-miterlimit="10" stroke-linecap="round" stroke-linejoin="round"/>
<path d="M27.0979 67.3502L35.4173 102.812C35.4173 102.812 70.9112 95.7629 98.6797 80.4369L87.8851 47.17C87.8851 47.17 44.2242 63.8773 27.0979 67.3502Z" stroke="#1F1541" stroke-width="0.876458" stroke-miterlimit="10" stroke-linecap="round" stroke-linejoin="round"/>
<path d="M40.7294 75.097L38.6624 75.7834L38.4839 75.2452L43.2392 73.6649L43.4177 74.2032L41.3508 74.8896L43.1261 80.2333L42.5047 80.4403L40.7294 75.097Z" fill="#1F1541"/>
<path d="M45.0669 73.0582L45.6887 72.8519L47.6421 78.7338L47.0204 78.9401L45.0669 73.0582Z" fill="#1F1541"/>
<path d="M48.898 75.0516C48.3258 73.3286 49.2147 71.6253 50.9877 71.0366C51.8449 70.7515 52.7126 70.7807 53.4232 71.1785L53.16 71.7049C52.519 71.3771 51.8611 71.3617 51.1889 71.5852C49.7691 72.057 49.0477 73.4529 49.5113 74.8481C49.975 76.2425 51.3874 76.9296 52.8076 76.4579C53.4798 76.2344 53.9984 75.8296 54.3124 75.174L54.8388 75.4383C54.5075 76.1828 53.8322 76.7334 52.9669 77.0208C51.202 77.6076 49.4701 76.7738 48.898 75.0516Z" fill="#1F1541"/>
<path d="M58.1769 72.1655L57.3801 73.7823L57.8937 75.3283L57.2719 75.5353L55.3185 69.6534L55.9403 69.4464L57.1211 73.0008L59.3935 68.2994L60.1073 68.0624L58.4462 71.5714L62.2377 73.8858L61.4982 74.1317L58.1769 72.1655Z" fill="#1F1541"/>
<path d="M68.0608 71.3541L68.2393 71.8916L64.0804 73.2729L62.127 67.391L66.1601 66.0516L66.3386 66.5899L62.9273 67.7231L63.6222 69.815L66.6641 68.805L66.84 69.3348L63.7984 70.3448L64.5233 72.5292L68.0608 71.3541Z" fill="#1F1541"/>
<path d="M69.9048 65.4056L67.8378 66.092L67.6593 65.5537L72.4146 63.9746L72.5932 64.5129L70.5262 65.1993L72.3015 70.5429L71.6801 70.7492L69.9048 65.4056Z" fill="#1F1541"/>
<path d="M75.3033 68.753L75.3879 68.1924C75.9447 68.4644 76.7931 68.5187 77.5657 68.2617C78.6665 67.8961 78.992 67.2755 78.7997 66.6961C78.2633 65.0827 74.9716 67.2763 74.2486 65.0997C73.9616 64.2351 74.3849 63.2647 75.8804 62.7672C76.5442 62.5471 77.2975 62.5113 77.877 62.6833L77.8316 63.2482C77.2187 63.0881 76.5773 63.1231 76.0563 63.2963C74.9809 63.6541 74.6611 64.2917 74.8562 64.8796C75.3926 66.4929 78.69 64.3155 79.401 66.4579C79.6885 67.324 79.2452 68.2913 77.7416 68.7911C76.8593 69.0843 75.8908 69.0612 75.3033 68.753Z" fill="#1F1541"/>
<path d="M49.7488 82.6901L51.7022 88.572L51.1055 88.7697L49.5425 84.0641L48.5468 88.7898L48.2524 88.8875L44.636 85.7239L46.1905 90.4031L45.5941 90.6008L43.6406 84.7189L44.1527 84.5485L48.1559 88.061L49.2359 82.8605L49.7488 82.6901Z" fill="#1F1541"/>
<path d="M52.9539 84.8904C52.3844 83.1767 53.2705 81.4633 55.0516 80.8719C56.8162 80.2856 58.5565 81.1166 59.1294 82.8389C59.7011 84.5611 58.8039 86.2687 57.0393 86.8547C55.2582 87.446 53.5233 86.6049 52.9539 84.8904ZM58.5076 83.0459C58.0413 81.643 56.6476 80.9574 55.2363 81.4264C53.8161 81.8981 53.1009 83.2837 53.5672 84.6865C54.0328 86.0894 55.4349 86.7716 56.8546 86.2998C58.2663 85.8312 58.9732 84.4487 58.5076 83.0459Z" fill="#1F1541"/>
<path d="M65.095 77.5923L64.444 84.3395L63.8307 84.5431L59.272 79.5265L59.9442 79.303L63.8926 83.6631L64.4644 77.8016L65.095 77.5923Z" fill="#1F1541"/>
<path d="M66.7792 77.0333L67.4006 76.8263L69.354 82.7082L68.7326 82.9152L66.7792 77.0333Z" fill="#1F1541"/>
<path d="M76.0883 79.8747L76.2668 80.4122L72.1079 81.7935L70.1544 75.9116L74.1875 74.5723L74.3661 75.1098L70.9547 76.2421L71.6496 78.3349L74.6912 77.3249L74.867 77.8547L71.8255 78.8647L72.5511 81.049L76.0883 79.8747Z" fill="#1F1541"/>
<path d="M77.7639 79.1224L77.8482 78.5618C78.4049 78.8338 79.2533 78.8881 80.0259 78.6311C81.1267 78.2655 81.4522 77.6441 81.2599 77.0647C80.7239 75.4521 77.4322 77.6449 76.7092 75.4694C76.4218 74.6041 76.8454 73.6326 78.341 73.1362C79.0048 72.9154 79.7581 72.8804 80.3376 73.0523L80.2922 73.6172C79.6789 73.4571 79.0378 73.4933 78.5169 73.666C77.4415 74.0231 77.1217 74.6614 77.3168 75.2494C77.8528 76.8627 81.1498 74.6853 81.8616 76.8277C82.1494 77.693 81.7058 78.6611 80.2021 79.1609C79.3203 79.4537 78.3518 79.4298 77.7639 79.1224Z" fill="#1F1541"/>
<path d="M103.631 157.852C98.9475 158.047 94.9763 156.659 91.6912 154.54C88.3141 152.361 85.6665 149.419 83.68 146.63C80.6873 142.42 79.2098 138.547 79.0743 138.187L81.8804 137.149C81.912 137.228 83.6484 141.766 87.1925 146.225C90.7624 150.736 96.1764 155.166 103.505 154.863C111.564 154.531 116.227 148.151 118.795 142.533C120.822 138.048 121.526 134.052 121.541 133.955L124.497 134.45C124.441 134.794 123.863 138.1 122.264 142.124C119.622 148.776 114.17 157.411 103.631 157.852Z" fill="#5352ED"/>
<path d="M81.8809 137.149C81.9125 137.229 83.6489 141.767 87.193 146.226L83.6805 146.63C80.6878 142.42 79.2103 138.547 79.0748 138.187L81.8809 137.149Z" fill="#1F1541"/>
<path d="M122.264 142.124L118.796 142.533C120.822 138.049 121.526 134.052 121.541 133.955L124.497 134.45C124.441 134.794 123.863 138.101 122.264 142.124Z" fill="#1F1541"/>
<path d="M168.604 135.182L165.125 135.441L164.053 135.521L34.5059 145.31C34.5005 145.319 34.4921 145.313 34.4921 145.313L28.6848 130.363C28.6956 130.346 28.7041 130.351 28.7041 130.351C30.0146 129.203 112.824 77.9489 136.041 63.5775C136.392 63.3647 136.715 63.1581 137.028 62.9681C140.224 60.9946 142.044 59.8665 142.044 59.8665C142.044 59.8665 146.531 61.5033 152.275 65.1266C152.432 65.2155 152.591 65.3182 152.75 65.4209C167.222 74.6861 189.009 96.2322 168.604 135.182Z" fill="#5352ED"/>
<path d="M28.6802 130.359C28.6802 130.359 34.5802 128.543 37.4217 136.302C40.11 143.642 34.4847 145.316 34.4847 145.316L28.6802 130.359Z" fill="#1F1541"/>
<path d="M152.748 65.4206L35.3362 132.614L33.3012 133.782L33.0569 133.351L34.9961 132.24L152.273 65.1262C152.429 65.2151 152.589 65.3178 152.748 65.4206Z" fill="#1F1541"/>
<path d="M66.042 121.162L70.2263 119.838C73.5157 118.796 76.4014 120.208 77.3583 123.234C78.3164 126.258 76.7689 129.073 73.4799 130.115L69.2956 131.439L66.042 121.162ZM73.1236 129.194C75.8535 128.329 77.0675 126.039 76.2868 123.573C75.5061 121.106 73.1956 119.932 70.4645 120.796L67.4256 121.757L70.0851 130.156L73.1236 129.194Z" fill="#1F1541"/>
<path d="M79.6438 116.856L80.7308 116.513L83.9843 126.79L82.8974 127.133L79.6438 116.856Z" fill="#1F1541"/>
<path d="M95.8197 123.042L92.4253 120.483C92.1698 120.596 91.9112 120.694 91.6173 120.787L88.8573 121.661L89.8885 124.92L88.8016 125.264L85.548 114.987L89.3949 113.769C92.0082 112.941 94.0124 113.76 94.7092 115.962C95.2214 117.579 94.7269 118.978 93.3826 119.937L97.0094 122.666L95.8197 123.042ZM93.6223 116.307C93.1021 114.663 91.7177 114.067 89.6634 114.718L86.9316 115.582L88.563 120.735L91.2948 119.871C93.3491 119.22 94.1352 117.923 93.6223 116.307Z" fill="#1F1541"/>
<path d="M107.861 118.195L108.158 119.136L100.89 121.436L97.6366 111.158L104.684 108.927L104.981 109.868L99.0202 111.755L100.178 115.411L105.493 113.729L105.785 114.653L100.47 116.337L101.679 120.153L107.861 118.195Z" fill="#1F1541"/>
<path d="M109.591 113.029C108.637 110.02 110.226 107.076 113.323 106.096C114.821 105.622 116.329 105.694 117.557 106.404L117.084 107.313C115.978 106.726 114.835 106.684 113.659 107.056C111.178 107.842 109.89 110.253 110.662 112.69C111.433 115.126 113.874 116.357 116.354 115.572C117.53 115.2 118.441 114.508 119.005 113.376L119.912 113.848C119.319 115.134 118.132 116.076 116.618 116.556C113.535 117.531 110.543 116.039 109.591 113.029Z" fill="#1F1541"/>
<path d="M123.065 104.143L119.454 105.285L119.157 104.347L127.467 101.715L127.765 102.655L124.152 103.798L127.109 113.135L126.022 113.479L123.065 104.143Z" fill="#1F1541"/>
<path d="M131.242 106.175C130.293 103.18 131.877 100.222 134.989 99.2373C138.073 98.2608 141.079 99.7487 142.032 102.759C142.985 105.768 141.382 108.714 138.299 109.691C135.186 110.676 132.189 109.169 131.242 106.175ZM140.946 103.102C140.169 100.651 137.763 99.4243 135.297 100.207C132.815 100.992 131.536 103.384 132.313 105.836C133.089 108.287 135.512 109.507 137.993 108.723C140.458 107.941 141.722 105.554 140.946 103.102Z" fill="#1F1541"/>
<path d="M154.588 104.436L151.194 101.877C150.939 101.989 150.68 102.088 150.386 102.182L147.626 103.055L148.657 106.314L147.571 106.659L144.317 96.3812L148.164 95.1634C150.777 94.3354 152.782 95.1546 153.478 97.3566C153.991 98.9734 153.496 100.372 152.152 101.331L155.779 104.059L154.588 104.436ZM152.391 97.701C151.872 96.0561 150.487 95.4605 148.433 96.1115L145.701 96.9753L147.332 102.128L150.064 101.265C152.118 100.614 152.904 99.3166 152.391 97.701Z" fill="#1F1541"/>
<path d="M142.264 125.172L158.815 122.426C161.139 122.041 163.343 123.592 163.765 125.91L163.905 126.683C164.35 129.131 162.638 131.447 160.167 131.739L143.476 133.712C141.061 133.997 138.888 132.231 138.673 129.808C138.474 127.562 140.039 125.541 142.264 125.172Z" fill="#FFDFDF"/>
<path d="M134.464 130.885C134.71 133.075 133.187 135.071 131.01 135.412L128.952 135.735C126.37 136.14 124.069 134.069 124.2 131.459L124.205 131.363C124.307 129.345 125.858 127.698 127.867 127.476L129.92 127.25C132.177 127.001 134.211 128.627 134.464 130.885Z" fill="#FFDFDF"/>
<path d="M165.125 135.441L164.052 135.521C166.364 128.443 171.594 109.208 166.024 93.6866C162.178 82.9805 153.061 74.7246 145.66 69.4744C145.514 69.3686 145.363 69.2713 145.218 69.1655C141.234 66.3817 137.803 64.4882 136.041 63.5771C136.392 63.3643 136.715 63.1577 137.028 62.9677C138.991 64.0088 142.353 65.9169 146.175 68.6202C146.321 68.7261 146.466 68.8315 146.612 68.9373C154.061 74.2778 163.105 82.593 166.96 93.3403C172.532 108.876 167.529 127.961 165.125 135.441Z" fill="#1F1541"/>
<path d="M31.1381 53.7991C31.0492 50.8087 32.2085 47.749 34.4424 45.7594C36.6764 43.7698 39.9923 42.9795 42.808 43.9891C45.6237 44.9987 47.7299 47.8798 47.5979 50.8687C47.576 51.3612 47.4556 51.918 47.0289 52.165C46.4056 52.5251 45.6499 51.9764 45.2062 51.4093C42.4586 47.8968 43.2085 42.3508 46.4309 39.268C49.6534 36.1853 54.7769 35.5473 58.9235 37.1888" stroke="#1F1541" stroke-width="0.990079" stroke-miterlimit="10"/>
<path d="M105.926 147.794C107.409 151.037 110.141 153.749 113.503 154.935C116.866 156.121 120.826 155.671 123.677 153.529C125.177 152.401 126.405 150.642 126.192 148.778C125.98 146.914 123.762 145.356 122.143 146.306C121.645 146.598 121.272 147.073 121.013 147.59C119.921 149.757 120.857 152.577 122.758 154.086C124.659 155.595 127.281 155.946 129.675 155.547C134.446 154.75 138.822 150.37 138.211 145.571C138.041 144.238 137.455 142.889 136.343 142.133C135.231 141.377 133.54 141.413 132.678 142.444C131.624 143.704 132.235 145.673 133.285 146.936C135.264 149.317 138.671 150.407 141.665 149.618C144.659 148.829 147.086 146.202 147.635 143.155" stroke="#1F1541" stroke-width="0.990079" stroke-miterlimit="10"/>
<path d="M112.461 62.7258C113.043 59.4972 115.223 56.4837 118.307 55.3664C121.392 54.249 125.268 55.3687 126.917 58.2048C127.643 59.4545 127.902 61.069 127.223 62.3449C126.543 63.6208 124.754 64.2995 123.55 63.5C122.457 60.4072 123.392 56.7962 125.556 54.3314C127.721 51.8669 130.965 50.4979 134.234 50.2259C136.377 50.0478 138.662 50.3529 140.379 51.6461C142.097 52.9393 143.038 55.4045 142.109 57.3437C141.665 58.2721 140.486 59.0386 139.634 58.4614C139.189 58.1606 139.003 57.5934 138.962 57.0582C138.771 54.5226 141.199 52.4753 143.666 51.8554C148.377 50.6715 153.754 53.4645 155.493 58.0001" stroke="#1F1541" stroke-width="0.990079" stroke-miterlimit="10"/>
</g>
<defs>
<clipPath id="clip0_6002_950">
<rect width="197" height="197" fill="white"/>
</clipPath>
</defs>
</svg>
