<svg width="29" height="28" viewBox="0 0 29 28" fill="none" xmlns="http://www.w3.org/2000/svg">
<path d="M26.6524 12.2128L26.6523 12.2129L21.6192 16.6054C20.9706 17.1715 20.6864 18.0487 20.8798 18.8876L22.389 25.4339L22.3896 25.4365C22.4343 25.628 22.4215 25.8284 22.3529 26.0126C22.2844 26.1969 22.163 26.3568 22.004 26.4725C21.845 26.5881 21.6554 26.6543 21.459 26.6628C21.263 26.6713 21.0689 26.622 20.9008 26.521C20.9004 26.5207 20.9 26.5205 20.8996 26.5203L15.2055 23.0666C14.4612 22.6151 13.5274 22.6156 12.7835 23.0677L7.10352 26.5203C7.10302 26.5206 7.10251 26.5209 7.10201 26.5212C6.93396 26.622 6.73996 26.6713 6.54413 26.6628C6.3477 26.6543 6.15814 26.5881 5.99914 26.4725C5.84014 26.3568 5.71876 26.1969 5.65017 26.0126C5.58159 25.8284 5.56884 25.628 5.61352 25.4365L5.61415 25.4338L7.12111 18.8943C7.31429 18.056 7.03053 17.1794 6.38274 16.6134L1.34521 12.2112L1.34522 12.2112L1.3403 12.207C1.19118 12.0784 1.08335 11.9086 1.03033 11.7189C0.977316 11.5293 0.981472 11.3282 1.04228 11.1409C1.10309 10.9536 1.21784 10.7885 1.37215 10.6661C1.52645 10.5438 1.71344 10.4697 1.90967 10.4532L1.91223 10.453L8.54177 9.87881C9.40576 9.80398 10.157 9.25614 10.4923 8.45636L13.0819 2.27964L13.0826 2.27807C13.1581 2.09709 13.2855 1.94249 13.4487 1.83375C13.6119 1.72501 13.8036 1.66699 13.9997 1.66699C14.1958 1.66699 14.3875 1.72502 14.5507 1.83375C14.7139 1.94249 14.8413 2.09709 14.9168 2.27807L14.9179 2.28063L17.5158 8.45861C17.8517 9.25718 18.6023 9.80397 19.4653 9.87874L26.0934 10.453L26.0959 10.4532C26.2922 10.4697 26.4792 10.5438 26.6335 10.6661C26.7878 10.7885 26.9025 10.9536 26.9633 11.1409L27.9145 10.8321L26.9633 11.1409C27.0242 11.3282 27.0283 11.5293 26.9753 11.7189C26.9277 11.8893 26.8358 12.0437 26.7095 12.1665C26.6899 12.1812 26.6709 12.1966 26.6524 12.2128Z" stroke="#5E81FF" stroke-width="2"/>
</svg>
