<svg width="29" height="28" viewBox="0 0 29 28" fill="none" xmlns="http://www.w3.org/2000/svg">
<path d="M27.3124 12.9633L21.6749 17.8833L23.3637 25.2083C23.453 25.5912 23.4275 25.992 23.2904 26.3605C23.1532 26.729 22.9104 27.0489 22.5924 27.2802C22.2744 27.5115 21.8953 27.6439 21.5025 27.6609C21.1096 27.6779 20.7205 27.5787 20.3837 27.3758L13.9949 23.5008L7.61993 27.3758C7.28314 27.5787 6.894 27.6779 6.50115 27.6609C6.1083 27.6439 5.72917 27.5115 5.41117 27.2802C5.09317 27.0489 4.85041 26.729 4.71324 26.3605C4.57607 25.992 4.55057 25.5912 4.63993 25.2083L6.32618 17.8908L0.68743 12.9633C0.389191 12.706 0.173533 12.3665 0.0675 11.9872C-0.0385328 11.6079 -0.0302203 11.2057 0.0913951 10.8312C0.21301 10.4566 0.442515 10.1262 0.751128 9.88154C1.05974 9.63686 1.43372 9.48875 1.82618 9.45577L9.25868 8.81202L12.1599 1.89202C12.3114 1.52891 12.567 1.21875 12.8944 1.00059C13.2218 0.782426 13.6065 0.666016 13.9999 0.666016C14.3934 0.666016 14.778 0.782426 15.1054 1.00059C15.4329 1.21875 15.6884 1.52891 15.8399 1.89202L18.7499 8.81202L26.1799 9.45577C26.5724 9.48875 26.9464 9.63686 27.255 9.88154C27.5636 10.1262 27.7931 10.4566 27.9147 10.8312C28.0363 11.2057 28.0446 11.6079 27.9386 11.9872C27.8326 12.3665 27.6169 12.706 27.3187 12.9633H27.3124Z" fill="#5E81FF"/>
</svg>
